<svg width="1242" height="312" viewBox="0 0 1242 312" fill="none" xmlns="http://www.w3.org/2000/svg">
<g clip-path="url(#clip0_131_8467)">
<circle cx="156" cy="156" r="143.5" stroke="#00214E" stroke-width="25"/>
<path d="M232.062 127.366C233.267 127.37 234.273 127.499 235.026 127.876C235.746 128.235 236.273 128.84 236.5 129.92V231.866C236.5 233.629 236.134 234.764 235.504 235.461C234.886 236.143 233.928 236.497 232.514 236.499C225.01 235.999 214.011 235.5 208 235.5C203.981 235.5 178.788 236.85 157.776 256.904C157.418 257.246 157.018 257.469 156.619 257.496C156.574 257.499 156.534 257.5 156.5 257.5C156.466 257.5 156.426 257.499 156.381 257.496C155.982 257.469 155.582 257.246 155.224 256.904C134.212 236.85 109.019 235.5 105 235.5C98.9887 235.5 87.9893 235.999 80.4854 236.499C79.0712 236.496 78.1135 236.143 77.4961 235.461C76.8664 234.764 76.5 233.629 76.5 231.866V129.92C76.7268 128.84 77.2543 128.235 77.9736 127.876C78.7272 127.499 79.7325 127.37 80.9375 127.366C83.2128 127.953 89.0349 130.01 93.46 131.51C94.0809 131.72 94.4923 132.294 94.4863 132.942C94.318 151.013 94.0079 191.235 94 217.363C93.9997 218.211 94.7016 218.861 95.5225 218.856C120.67 218.719 138.351 225.735 145.197 229.517C146.208 230.076 147.5 229.364 147.5 228.179V170.118C147.5 169.545 147.165 169.024 146.661 168.772C124.771 157.864 112.767 154.039 108.7 152.916C107.995 152.721 107.5 152.087 107.5 151.374V135.872C107.5 134.936 108.32 134.277 109.192 134.485C114.839 135.835 130.859 140.388 155.807 153.206C156.238 153.427 156.762 153.427 157.193 153.206C182.141 140.388 198.161 135.835 203.808 134.485C204.68 134.277 205.5 134.936 205.5 135.872V151.374C205.5 152.087 205.005 152.721 204.3 152.916C200.233 154.039 188.229 157.864 166.339 168.772C165.835 169.024 165.5 169.545 165.5 170.118V228.179C165.5 229.364 166.792 230.076 167.803 229.517C174.649 225.735 192.33 218.719 217.478 218.856C218.298 218.861 219 218.211 219 217.363C218.992 191.235 218.682 151.013 218.514 132.942C218.508 132.294 218.919 131.72 219.54 131.51C223.965 130.01 229.786 127.954 232.062 127.366Z" fill="#00214E" stroke="#00214E"/>
<path d="M260.678 92.8972L156.856 55.4886C155.98 55.1728 155.02 55.1728 154.144 55.4886L50.322 92.8971C49.5288 93.1829 49 93.9356 49 94.7787V103.269C49 104.263 49.7218 105.127 50.6945 105.331C52.7916 105.769 57.2764 106.768 66.4457 109C68.5 109.5 73.5 109.919 108 121C138.676 130.853 152.354 137.81 155.009 139.232C155.321 139.399 155.679 139.399 155.991 139.232C158.646 137.81 172.324 130.853 203 121C230.283 112.237 240.402 109.829 243.442 109.205C244.033 109.084 244.554 109.535 244.554 110.139V143.967C244.554 144.494 244.963 144.93 245.489 144.964L260.368 145.932C260.939 145.969 261.425 145.52 261.433 144.948L262 104.337V94.7788C262 93.9356 261.471 93.183 260.678 92.8972Z" fill="#00214E"/>
</g>
<path d="M343.193 70.2121C342.654 69.2127 343.378 68 344.513 68H392.085C392.659 68 393.183 68.3282 393.434 68.845L427.205 138.425C427.397 138.821 427.798 139.072 428.239 139.072V139.072C428.678 139.072 429.078 138.822 429.271 138.428L463.28 68.8414C463.531 68.3265 464.054 68 464.627 68H512.201C513.337 68 514.06 69.2127 513.521 70.2121L451.174 185.8C451.056 186.019 450.995 186.264 450.995 186.512V240.339C450.995 241.167 450.323 241.839 449.495 241.839H407.22C406.392 241.839 405.72 241.167 405.72 240.339V186.512C405.72 186.264 405.658 186.019 405.54 185.8L343.193 70.2121Z" fill="#00214E"/>
<path d="M636.935 69.5C636.935 68.6716 637.607 68 638.435 68H680.95C681.778 68 682.45 68.6716 682.45 69.5V179.651C682.45 219.029 652.506 244 607.95 244C563.394 244 533.69 219.029 533.69 179.651V69.5C533.69 68.6716 534.362 68 535.19 68H577.704C578.533 68 579.204 68.6716 579.204 69.5V175.569C579.204 192.377 591.182 204.382 607.95 204.382C624.958 204.382 636.935 192.377 636.935 175.569V69.5Z" fill="#00214E"/>
<path d="M705.56 104.977C704.732 104.977 704.06 104.305 704.06 103.477V69.5C704.06 68.6716 704.732 68 705.56 68H852.039C852.867 68 853.539 68.6716 853.539 69.5V103.477C853.539 104.305 852.867 104.977 852.039 104.977H802.817C801.988 104.977 801.317 105.648 801.317 106.477V240.339C801.317 241.167 800.645 241.839 799.817 241.839H757.782C756.953 241.839 756.282 241.167 756.282 240.339V106.477C756.282 105.648 755.61 104.977 754.782 104.977H705.56Z" fill="#00214E"/>
<path d="M919.163 68C919.992 68 920.663 68.6716 920.663 69.5V240.339C920.663 241.167 919.992 241.839 919.163 241.839H876.649C875.82 241.839 875.149 241.167 875.149 240.339V69.5C875.149 68.6716 875.82 68 876.649 68H919.163Z" fill="#00214E"/>
<path d="M948.804 241.839C947.976 241.839 947.304 241.167 947.304 240.339V69.5C947.304 68.6716 947.976 68 948.804 68H1069.65C1070.48 68 1071.15 68.6716 1071.15 69.5V103.477C1071.15 104.305 1070.48 104.977 1069.65 104.977H994.318C993.49 104.977 992.818 105.648 992.818 106.477V134.931C992.818 135.76 993.49 136.431 994.318 136.431H1063.18C1064.01 136.431 1064.68 137.103 1064.68 137.931V171.908C1064.68 172.736 1064.01 173.408 1063.18 173.408H994.318C993.49 173.408 992.818 174.079 992.818 174.908V203.362C992.818 204.191 993.49 204.862 994.318 204.862H1069.41C1070.24 204.862 1070.91 205.534 1070.91 206.362V240.339C1070.91 241.167 1070.24 241.839 1069.41 241.839H948.804Z" fill="#00214E"/>
<path d="M1099.77 241.839C1098.94 241.839 1098.27 241.167 1098.27 240.339V69.5C1098.27 68.6716 1098.94 68 1099.77 68H1172.05C1210.86 68 1236.25 90.09 1236.25 126.827C1236.25 150.221 1225.79 167.006 1207.97 176.069C1207.2 176.46 1206.89 177.405 1207.31 178.161L1240.79 239.621C1241.34 240.621 1240.61 241.839 1239.47 241.839H1193.32C1192.76 241.839 1192.25 241.532 1191.99 241.041L1162.17 184.77C1161.91 184.28 1161.4 183.973 1160.85 183.973H1145.28C1144.46 183.973 1143.78 184.644 1143.78 185.473V240.339C1143.78 241.167 1143.11 241.839 1142.28 241.839H1099.77ZM1143.78 146.696C1143.78 147.525 1144.46 148.196 1145.28 148.196H1161.51C1178.76 148.196 1188.58 141.954 1188.58 126.827C1188.58 111.46 1178.76 104.497 1161.51 104.497H1145.28C1144.46 104.497 1143.78 105.168 1143.78 105.997V146.696Z" fill="#00214E"/>
<defs>
<clipPath id="clip0_131_8467">
<rect width="312" height="312" fill="white"/>
</clipPath>
</defs>
</svg>
