<svg width="150" height="38" viewBox="0 0 150 38" fill="none" xmlns="http://www.w3.org/2000/svg">
<g clip-path="url(#clip0_220_1453)">
<path d="M9.79016 15.4536C10.0678 15.5258 10.7751 15.7778 11.3068 15.9595C11.4061 15.9934 11.4727 16.0866 11.4718 16.1923C11.4515 18.3932 11.414 23.2918 11.413 26.4737C11.413 26.5414 11.4687 26.5951 11.5362 26.5947L11.6784 26.5946C14.6509 26.6047 16.7427 27.4426 17.565 27.9007C17.6489 27.9474 17.7536 27.8867 17.7536 27.7911V20.7195C17.7536 20.6735 17.7267 20.6308 17.6857 20.6101C15.0449 19.283 13.5988 18.8187 13.112 18.6831C13.0018 18.6524 12.9227 18.5519 12.9227 18.4366V16.5485C12.9227 16.3972 13.0563 16.2855 13.2014 16.3204C13.8882 16.486 15.8276 17.0423 18.8448 18.6056L18.8582 18.6114C18.8901 18.6232 18.9267 18.6213 18.9571 18.6056L19.2367 18.4619C22.0942 17.0078 23.935 16.4808 24.6004 16.3204C24.7456 16.2855 24.8792 16.3972 24.8792 16.5485V18.4366C24.8792 18.5519 24.8002 18.6524 24.69 18.6831C24.2032 18.8187 22.757 19.2829 20.1161 20.61L20.1162 20.6101C20.0752 20.6308 20.0483 20.6735 20.0483 20.7195V27.7911C20.0484 27.8867 20.153 27.9475 20.2369 27.9008C21.0723 27.4354 23.2178 26.5779 26.2659 26.5947C26.329 26.5951 26.3819 26.5479 26.3883 26.4862L26.3889 26.4737C26.3879 23.2918 26.3504 18.3932 26.3302 16.1923C26.3292 16.0867 26.3958 15.9934 26.4952 15.9595C27.0269 15.7778 27.7339 15.5259 28.0117 15.4536L28.0192 15.4517H28.027C28.1747 15.4521 28.308 15.4677 28.4118 15.5202C28.5162 15.5726 28.5909 15.6623 28.6219 15.8111L28.6232 15.8173V28.2401C28.6232 28.4615 28.5779 28.6178 28.4873 28.7189C28.397 28.8193 28.2617 28.865 28.0815 28.8653H28.0795L28.0774 28.8651C27.1716 28.8043 25.8448 28.7436 25.1208 28.7436C24.6425 28.7436 21.6183 28.9067 19.0968 31.3336C19.0539 31.3749 19.0019 31.4084 18.9444 31.4193L18.9194 31.4225C18.9124 31.4229 18.9063 31.4231 18.901 31.4231L18.8826 31.4225C18.8151 31.4179 18.7541 31.3808 18.7052 31.3336C16.1836 28.9067 13.1595 28.7436 12.6812 28.7436C11.9571 28.7436 10.6302 28.8043 9.72446 28.8651L9.72246 28.8653H9.72034C9.54017 28.8649 9.40488 28.8194 9.31461 28.7189C9.22408 28.6178 9.17874 28.4615 9.17874 28.2401V15.8173L9.18004 15.8111C9.21103 15.6623 9.28591 15.5726 9.3901 15.5202L9.40991 15.5108C9.51071 15.4658 9.63631 15.4521 9.77483 15.4517H9.78261L9.79016 15.4536Z" fill="#FDFDFD"/>
<path d="M18.6164 6.75831C18.7222 6.71984 18.8382 6.71984 18.944 6.75831L31.4828 11.3144C31.5786 11.3492 31.6425 11.4409 31.6425 11.5436V12.7077L31.574 17.654C31.573 17.7236 31.5144 17.7783 31.4454 17.7738L29.6485 17.6559C29.5849 17.6517 29.5355 17.5986 29.5355 17.5344V13.4144C29.5355 13.3409 29.4726 13.2859 29.4013 13.3006C29.0341 13.3766 27.812 13.6699 24.5169 14.7372C20.8121 15.9372 19.1602 16.7846 18.8395 16.9578C18.8018 16.9781 18.7586 16.9781 18.7209 16.9578C18.4002 16.7846 16.7483 15.9372 13.0435 14.7372C8.87682 13.3876 8.2729 13.3365 8.0248 13.2756C6.91743 13.0038 6.37577 12.8821 6.1225 12.8288C6.00505 12.8039 5.91789 12.6987 5.91787 12.5777V11.5436C5.91787 11.4409 5.98177 11.3492 6.07757 11.3144L18.6164 6.75831Z" fill="#FDFDFD"/>
<path fill-rule="evenodd" clip-rule="evenodd" d="M18.8406 0C29.2459 0 37.6812 8.50659 37.6812 19C37.6812 29.4934 29.2459 38 18.8406 38C8.43522 38 0 29.4934 0 19C0 8.50659 8.43522 0 18.8406 0ZM18.8406 3.04487C10.1027 3.04487 3.01932 10.1882 3.01932 19C3.01932 27.8118 10.1027 34.9551 18.8406 34.9551C27.5784 34.9551 34.6618 27.8118 34.6618 19C34.6618 10.1882 27.5784 3.04487 18.8406 3.04487Z" fill="#FDFDFD"/>
<path d="M41.4484 8.55165C41.3833 8.42993 41.4708 8.28223 41.6078 8.28223H47.3532C47.4226 8.28223 47.4859 8.3222 47.5162 8.38514L51.5948 16.8596C51.618 16.9079 51.6664 16.9384 51.7197 16.9384C51.7727 16.9384 51.821 16.908 51.8443 16.86L55.9517 8.3847C55.982 8.32199 56.0452 8.28223 56.1144 8.28223H61.86C61.9972 8.28223 62.0846 8.42993 62.0194 8.55165L54.4896 22.6297C54.4753 22.6563 54.468 22.6862 54.468 22.7164V29.2722C54.468 29.3731 54.3868 29.4549 54.2868 29.4549H49.1811C49.0811 29.4549 49 29.3731 49 29.2722V22.7164C49 22.6862 48.9925 22.6563 48.9782 22.6297L41.4484 8.55165Z" fill="#FDFDFD"/>
<path d="M76.9245 8.46492C76.9245 8.36402 77.0057 8.28223 77.1057 8.28223H82.2403C82.3403 8.28223 82.4215 8.36402 82.4215 8.46492V21.8807C82.4215 26.6768 78.8051 29.7181 73.4239 29.7181C68.0428 29.7181 64.4553 26.6768 64.4553 21.8807V8.46492C64.4553 8.36402 64.5365 8.28223 64.6365 8.28223H69.771C69.8711 8.28223 69.9522 8.36402 69.9522 8.46492V21.3836C69.9522 23.4307 71.3988 24.8929 73.4239 24.8929C75.478 24.8929 76.9245 23.4307 76.9245 21.3836V8.46492Z" fill="#FDFDFD"/>
<path d="M85.2126 12.7858C85.1126 12.7858 85.0314 12.704 85.0314 12.6031V8.46492C85.0314 8.36402 85.1126 8.28223 85.2126 8.28223H102.903C103.003 8.28223 103.084 8.36402 103.084 8.46492V12.6031C103.084 12.704 103.003 12.7858 102.903 12.7858H96.9586C96.8585 12.7858 96.7774 12.8676 96.7774 12.9685V29.2722C96.7774 29.3731 96.6963 29.4549 96.5963 29.4549H91.5196C91.4194 29.4549 91.3384 29.3731 91.3384 29.2722V12.9685C91.3384 12.8676 91.2572 12.7858 91.1572 12.7858H85.2126Z" fill="#FDFDFD"/>
<path d="M111.01 8.28223C111.11 8.28223 111.191 8.36402 111.191 8.46492V29.2722C111.191 29.3731 111.11 29.4549 111.01 29.4549H105.875C105.775 29.4549 105.694 29.3731 105.694 29.2722V8.46492C105.694 8.36402 105.775 8.28223 105.875 8.28223H111.01Z" fill="#FDFDFD"/>
<path d="M114.59 29.4549C114.49 29.4549 114.409 29.3731 114.409 29.2722V8.46492C114.409 8.36402 114.49 8.28223 114.59 8.28223H129.185C129.285 8.28223 129.366 8.36402 129.366 8.46492V12.6031C129.366 12.704 129.285 12.7858 129.185 12.7858H120.087C119.987 12.7858 119.906 12.8676 119.906 12.9685V16.4341C119.906 16.535 119.987 16.6168 120.087 16.6168H128.403C128.504 16.6168 128.585 16.6986 128.585 16.7995V20.9377C128.585 21.0385 128.504 21.1204 128.403 21.1204H120.087C119.987 21.1204 119.906 21.2021 119.906 21.3031V24.7686C119.906 24.8696 119.987 24.9513 120.087 24.9513H129.156C129.256 24.9513 129.337 25.0332 129.337 25.134V29.2722C129.337 29.3731 129.256 29.4549 129.156 29.4549H114.59Z" fill="#FDFDFD"/>
<path d="M132.822 29.4549C132.722 29.4549 132.641 29.3731 132.641 29.2722V8.46492C132.641 8.36402 132.722 8.28223 132.822 8.28223H141.552C146.239 8.28223 149.306 10.9727 149.306 15.4471C149.306 18.2963 148.042 20.3406 145.89 21.4445C145.797 21.4921 145.76 21.6072 145.81 21.6993L149.854 29.1848C149.92 29.3066 149.832 29.4549 149.694 29.4549H144.121C144.053 29.4549 143.992 29.4175 143.96 29.3577L140.359 22.5042C140.327 22.4445 140.266 22.4071 140.199 22.4071H138.319C138.22 22.4071 138.138 22.4889 138.138 22.5898V29.2722C138.138 29.3731 138.057 29.4549 137.957 29.4549H132.822ZM138.138 17.867C138.138 17.968 138.22 18.0497 138.319 18.0497H140.279C142.362 18.0497 143.548 17.2894 143.548 15.4471C143.548 13.5754 142.362 12.7274 140.279 12.7274H138.319C138.22 12.7274 138.138 12.8091 138.138 12.9101V17.867Z" fill="#FDFDFD"/>
</g>
<defs>
<clipPath id="clip0_220_1453">
<rect width="150" height="38" fill="white"/>
</clipPath>
</defs>
</svg>
