<svg width="41" height="43" viewBox="0 0 41 43" fill="none" xmlns="http://www.w3.org/2000/svg">
<path d="M24.598 39.046L20.5 41.5L16.1536 39.046C10.3915 40.0276 5.30828 36.0194 3.48693 33.8926L6.09477 32.5429C2.91569 29.9908 1.70697 24.9356 1.5 22.727H3.85948C3.66079 17.819 5.76362 14.2198 6.83987 13.0337L7.70915 13.8926L11.1863 10.9479L10.4412 8.12577L15.9052 7.88037L20.5 1.5L25.0948 7.88037L30.9314 8.12577L29.9379 10.9479L33.1667 13.8926L34.1601 13.0337C36.9418 16.0767 37.3889 20.7638 37.2647 22.727H39.5C39.0033 28.4202 36.2298 31.6432 34.9052 32.5429C35.8159 32.9928 37.5627 33.8926 37.2647 33.8926C34.185 38.3098 27.537 39.1687 24.598 39.046Z" fill="#D9D9D9" stroke="#BFBFBF"/>
</svg>
