<svg width="45" height="48" viewBox="0 0 45 48" fill="none" xmlns="http://www.w3.org/2000/svg">
<path d="M27.0294 43.7393L22.5 46.5L17.6961 43.7393C11.3274 44.8436 5.70915 40.3344 3.69608 37.9417L6.57843 36.4233C3.06471 33.5521 1.72876 27.865 1.5 25.3804H4.10785C3.88824 19.8589 6.21242 15.8098 7.40196 14.4755L8.36275 15.4417L12.2059 12.1288L11.3824 8.95399L17.4216 8.67791L22.5 1.5L27.5784 8.67791L34.0294 8.95399L32.9314 12.1288L36.5 15.4417L37.598 14.4755C40.6726 17.8988 41.1667 23.1718 41.0294 25.3804H43.5C42.951 31.7853 39.8856 35.411 38.4216 36.4233C39.4281 36.9294 41.3588 37.9417 41.0294 37.9417C37.6255 42.911 30.2778 43.8773 27.0294 43.7393Z" fill="#FFF08F" stroke="#FFE72D"/>
</svg>
