<svg width="312" height="312" viewBox="0 0 312 312" fill="none" xmlns="http://www.w3.org/2000/svg">
<g clip-path="url(#clip0_131_8460)">
<circle cx="156" cy="156" r="143.5" stroke="#00214E" stroke-width="25"/>
<path d="M232.062 127.366C233.267 127.37 234.273 127.499 235.026 127.876C235.746 128.235 236.273 128.84 236.5 129.92V231.866C236.5 233.629 236.134 234.764 235.504 235.461C234.886 236.143 233.928 236.497 232.514 236.499C225.01 235.999 214.011 235.5 208 235.5C203.981 235.5 178.788 236.85 157.776 256.904C157.418 257.246 157.018 257.469 156.619 257.496C156.574 257.499 156.534 257.5 156.5 257.5C156.466 257.5 156.426 257.499 156.381 257.496C155.982 257.469 155.582 257.246 155.224 256.904C134.212 236.85 109.019 235.5 105 235.5C98.9887 235.5 87.9893 235.999 80.4854 236.499C79.0712 236.496 78.1135 236.143 77.4961 235.461C76.8664 234.764 76.5 233.629 76.5 231.866V129.92C76.7268 128.84 77.2543 128.235 77.9736 127.876C78.7272 127.499 79.7325 127.37 80.9375 127.366C83.2128 127.953 89.0349 130.01 93.46 131.51C94.0809 131.72 94.4923 132.294 94.4863 132.942C94.318 151.013 94.0079 191.235 94 217.363C93.9997 218.211 94.7016 218.861 95.5225 218.856C120.67 218.719 138.351 225.735 145.197 229.517C146.208 230.076 147.5 229.364 147.5 228.179V170.118C147.5 169.545 147.165 169.024 146.661 168.772C124.771 157.864 112.767 154.039 108.7 152.916C107.995 152.721 107.5 152.087 107.5 151.374V135.872C107.5 134.936 108.32 134.277 109.192 134.485C114.839 135.835 130.859 140.388 155.807 153.206C156.238 153.427 156.762 153.427 157.193 153.206C182.141 140.388 198.161 135.835 203.808 134.485C204.68 134.277 205.5 134.936 205.5 135.872V151.374C205.5 152.087 205.005 152.721 204.3 152.916C200.233 154.039 188.229 157.864 166.339 168.772C165.835 169.024 165.5 169.545 165.5 170.118V228.179C165.5 229.364 166.792 230.076 167.803 229.517C174.649 225.735 192.33 218.719 217.478 218.856C218.298 218.861 219 218.211 219 217.363C218.992 191.235 218.682 151.013 218.514 132.942C218.508 132.294 218.919 131.72 219.54 131.51C223.965 130.01 229.786 127.954 232.062 127.366Z" fill="#00214E" stroke="#00214E"/>
<path d="M260.678 92.8972L156.856 55.4886C155.98 55.1728 155.02 55.1728 154.144 55.4886L50.322 92.8971C49.5288 93.1829 49 93.9356 49 94.7787V103.269C49 104.263 49.7218 105.127 50.6945 105.331C52.7916 105.769 57.2764 106.768 66.4457 109C68.5 109.5 73.5 109.919 108 121C138.676 130.853 152.354 137.81 155.009 139.232C155.321 139.399 155.679 139.399 155.991 139.232C158.646 137.81 172.324 130.853 203 121C230.283 112.237 240.402 109.829 243.442 109.205C244.033 109.084 244.554 109.535 244.554 110.139V143.967C244.554 144.494 244.963 144.93 245.489 144.964L260.368 145.932C260.939 145.969 261.425 145.52 261.433 144.948L262 104.337V94.7788C262 93.9356 261.471 93.183 260.678 92.8972Z" fill="#00214E"/>
</g>
<defs>
<clipPath id="clip0_131_8460">
<rect width="312" height="312" fill="white"/>
</clipPath>
</defs>
</svg>
